<?xml version="1.0" encoding="utf-8"?>
<!-- Generator: Adobe Illustrator 21.0.0, SVG Export Plug-In . SVG Version: 6.00 Build 0)  -->
<svg version="1.1" id="Layer_1" xmlns="http://www.w3.org/2000/svg" xmlns:xlink="http://www.w3.org/1999/xlink" x="0px" y="0px"
	 viewBox="0 0 300 300" style="enable-background:new 0 0 300 300;" xml:space="preserve">
<style type="text/css">
	.st0{fill:#DB0000;}
</style>
<path class="st0" d="M150,6.4C70.7,6.4,6.4,70.7,6.4,150S70.7,293.6,150,293.6c27,0,52.3-7.5,73.9-20.5h44.7c2,0,3.5-0.6,4.3-1.7
	c1.1-1.7,1.7-3.2,1.7-4.3v-45.8c12-21,18.9-45.3,18.9-71.2C293.6,70.7,229.3,6.4,150,6.4z M169.9,244.4c0,1.2-0.6,2.6-1.7,4.3
	c-0.9,1.2-2.3,1.7-4.3,1.7h-28.9c-1.2,0-2.3-0.6-3.5-1.7c-1.2-1.1-1.7-2.6-1.7-4.3v-23.8c0-2,0.6-3.6,1.7-4.7
	c1.4-1.4,2.6-2.2,3.5-2.2h3c0,2,0.4,3.2,1.3,3.5c0.3,0.6,1,1.2,2.2,1.7h3.9h4.8h4.3h3.9c1.1-0.3,2.2-0.9,3-1.7
	c0.6-0.6,0.9-1.7,0.9-3.5h1.7c2,0,3.5,0.7,4.3,2.2c1.1,1.7,1.7,3.3,1.7,4.7V244.4z M218.7,121.3c-1.4,3.2-3,6.3-4.5,9.5
	c-1.6,3.2-3.4,6.3-5.4,9.5c-3.7,5.8-7.9,11.7-12.5,17.7c-4.9,6-9.2,11.7-13,16.8c-2,2.9-3.8,5.6-5.4,8.2c-1.6,2.6-3.1,5-4.5,7.3
	c-2.6,5.2-3.9,9.9-3.9,14.2h-7.8c0-2.3,0.1-4.7,0.4-7.1c0.3-2.4,0.9-5,1.7-7.6c1.2-4,3.2-9.2,6-15.5c2-5.5,4.6-11.1,7.8-16.8
	c1.4-2.9,2.7-5.8,3.9-8.6c1.1-2.9,2.4-5.9,3.9-9.1c1.1-3.2,2.2-6.2,3.2-9.1c1-2.9,1.8-5.9,2.4-9.1c1.7-6.3,2.6-12.8,2.6-19.4
	c0-8.9-1.4-17-4.3-24.2c-1.4-3.2-3-6.1-4.7-8.9c-1.7-2.7-3.7-5.1-6-7.1c-3.5-3.7-7.9-6.6-13.4-8.6c-2.6-0.9-4.9-1.6-6.9-2.2
	c-2-0.6-3.9-0.9-5.6-0.9c1.4,0.6,3,1.9,4.7,3.9c2,1.4,3.9,4.5,5.6,9.1c1.4,3.2,2.9,8.4,4.3,15.5c1.4,6.6,2.2,14.2,2.2,22.9
	c0,9.5-0.9,19-2.6,28.5c-0.9,4.9-1.8,9.6-2.8,14c-1,4.5-2.1,8.9-3.2,13.2c-1.2,4.3-2.2,8.6-3,12.7c-0.9,4.2-1.7,8.3-2.6,12.3
	c-1.7,7.8-2.6,15.1-2.6,22h-6.9c0-7.5-1-14.8-3-22c-1.2-4-2.2-8.1-3.2-12.3c-1-4.2-2.1-8.4-3.2-12.7c-1.2-4.3-2.3-8.7-3.5-13.2
	c-1.2-4.5-2.3-9.1-3.5-14c-2-8.9-3-18.4-3-28.5c0-8.6,0.7-16.3,2.2-22.9c1.7-6.9,3.6-12.1,5.6-15.5c1.7-4.3,3.9-7.3,6.5-9.1
	c2-2,3.7-3.3,5.2-3.9c-2.9,0-7.1,1-12.5,3c-4.9,1.7-9.4,4.6-13.4,8.6c-3.7,3.7-7.2,9.1-10.4,16c-2.9,6-4.3,14.1-4.3,24.2
	c0,6.9,0.9,13.4,2.6,19.4c0.9,3.2,1.8,6.3,2.8,9.5c1,3.2,2.1,6.3,3.2,9.5c1.4,3.2,2.7,6.2,3.9,9.1c1.1,2.9,2.4,5.8,3.9,8.6
	c2.9,5.2,5.5,10.7,7.8,16.4c1.4,2.9,2.6,5.5,3.5,8c0.9,2.5,1.7,5,2.6,7.6c1.4,4,2.2,8.8,2.2,14.2h-8.2c0-4.6-1.4-9.4-4.3-14.2
	c-1.4-2.3-2.9-4.7-4.3-7.3c-1.4-2.6-3.2-5.3-5.2-8.2c-2-2.6-4-5.3-6-8c-2-2.7-4.2-5.7-6.4-8.9c-4.3-5.2-8.5-11.1-12.7-17.7
	c-4-5.8-7.2-12.1-9.8-19c-2.3-5.8-3.5-12.2-3.5-19.4c0-7.2,1.1-13.1,3.5-17.7c2.5-5.2,5.7-9.6,9.3-13.4c4.2-3.7,8.8-6.9,13.6-9.5
	c4.6-2.6,9.8-4.9,15.5-6.9c2.6-0.6,5.1-1.1,7.6-1.7c2.4-0.6,5-1.1,7.6-1.7c5.2-0.9,9.6-1.3,13.4-1.3h3.5c3.7,0,8.2,0.4,13.4,1.3
	c2.3,0.6,4.8,1.2,7.3,1.7c2.6,0.6,5.2,1.2,7.8,1.7c2.6,0.9,5.2,1.9,8,3c2.7,1.2,5.4,2.5,8,3.9c5.8,2.9,10.4,6,13.8,9.5
	c4.3,4.3,7.6,8.8,9.9,13.4c2.6,5.2,3.9,11.1,3.9,17.7C223,107.6,221.5,114.1,218.7,121.3z"/>
</svg>
