<?xml version="1.0" encoding="utf-8"?>
<!-- Generator: Adobe Illustrator 21.0.0, SVG Export Plug-In . SVG Version: 6.00 Build 0)  -->
<svg version="1.1" id="Layer_2" xmlns="http://www.w3.org/2000/svg" xmlns:xlink="http://www.w3.org/1999/xlink" x="0px" y="0px"
	 viewBox="0 0 762 762" style="enable-background:new 0 0 762 762;" xml:space="preserve">
<style type="text/css">
	.st0{fill:url(#XMLID_2_);}
	.st1{clip-path:url(#XMLID_4_);}
	.st2{fill:#333333;}
	.st3{fill:#0A0A0A;}
	.st4{fill:#1F1F1F;}
</style>
<g>
	<g>
		<linearGradient id="XMLID_2_" gradientUnits="userSpaceOnUse" x1="750.8298" y1="12.2903" x2="59.5696" y2="701.4615">
			<stop  offset="0" style="stop-color:#AAAAAA"/>
			<stop  offset="0.19" style="stop-color:#E7E7E7"/>
			<stop  offset="0.4923" style="stop-color:#FFFFFF"/>
			<stop  offset="0.6992" style="stop-color:#E7E7E7"/>
			<stop  offset="1" style="stop-color:#BDBDBD"/>
		</linearGradient>
		<rect id="XMLID_32_" x="0" class="st0" width="762" height="762"/>
		<g>
			<g>
				<defs>
					<rect id="XMLID_114_" width="762" height="762"/>
				</defs>
				<clipPath id="XMLID_3_">
					<use xlink:href="#XMLID_114_"  style="overflow:visible;"/>
				</clipPath>
			</g>
			<g>
				<defs>
					<rect id="XMLID_34_" width="762" height="762"/>
				</defs>
				<clipPath id="XMLID_4_">
					<use xlink:href="#XMLID_34_"  style="overflow:visible;"/>
				</clipPath>
				<g class="st1">
					<g id="XMLID_35_">
						<polygon class="st2" points="-38.9,-3.3 25.9,-3.3 -11.6,-67 -38.9,-67 						"/>
						<polygon class="st2" points="-11.6,-67 25.9,-3.3 63.4,-67 						"/>
						<polygon class="st2" points="63.4,-67 25.9,-3.3 155.7,-3.3 118.2,-67 						"/>
						<polygon class="st3" points="118.2,-67 155.7,-3.3 193.2,-67 						"/>
						<polygon class="st3" points="193.2,-67 155.7,-3.3 285.5,-3.3 248,-67 						"/>
						<polygon class="st4" points="248,-67 285.5,-3.3 323,-67 						"/>
						<polygon class="st2" points="323,-67 285.5,-3.3 415.4,-3.3 377.9,-67 						"/>
						<polygon points="377.9,-67 415.4,-3.3 452.8,-67 						"/>
						<polygon class="st4" points="452.8,-67 415.4,-3.3 545.2,-3.3 507.7,-67 						"/>
						<polygon class="st4" points="507.7,-67 545.2,-3.3 582.7,-67 						"/>
						<polygon class="st4" points="582.7,-67 545.2,-3.3 675,-3.3 637.5,-67 						"/>
						<polygon class="st3" points="637.5,-67 675,-3.3 712.5,-67 						"/>
						<polygon class="st3" points="712.5,-67 675,-3.3 800.4,-3.3 800.4,-10.8 767.3,-67 						"/>
						<polygon class="st3" points="767.3,-67 800.4,-10.8 800.4,-67 						"/>
						<polygon points="-38.9,106.7 25.9,-3.3 -38.9,-3.3 						"/>
						<polygon points="-38.9,106.9 90.8,106.9 25.9,-3.3 -38.9,106.7 						"/>
						<polygon id="XMLID_113_" class="st3" points="155.7,-3.3 90.8,106.9 25.9,-3.3 						"/>
						<polygon id="XMLID_112_" class="st3" points="90.8,106.9 155.7,-3.3 220.6,106.9 						"/>
						<polygon id="XMLID_111_" points="285.5,-3.3 220.6,106.9 155.7,-3.3 						"/>
						<polygon id="XMLID_110_" class="st4" points="220.6,106.9 285.5,-3.3 350.4,106.9 						"/>
						<polygon id="XMLID_109_" class="st2" points="415.4,-3.3 350.4,106.9 285.5,-3.3 						"/>
						<polygon id="XMLID_108_" class="st3" points="350.4,106.9 415.4,-3.3 480.3,106.9 						"/>
						<polygon id="XMLID_107_" points="545.2,-3.3 480.3,106.9 415.4,-3.3 						"/>
						<polygon id="XMLID_106_" class="st4" points="480.3,106.9 545.2,-3.3 610.1,106.9 						"/>
						<polygon id="XMLID_105_" class="st3" points="675,-3.3 610.1,106.9 545.2,-3.3 						"/>
						<polygon id="XMLID_104_" class="st3" points="610.1,106.9 675,-3.3 739.9,106.9 						"/>
						<polygon class="st4" points="800.4,-3.3 675,-3.3 739.9,106.9 800.4,4.1 						"/>
						<polygon class="st2" points="800.4,106.9 800.4,4.1 739.9,106.9 						"/>
						<polygon class="st3" points="-38.9,217.2 25.9,217.2 -38.9,107.1 						"/>
						<polygon class="st4" points="-38.9,107.1 25.9,217.2 90.8,106.9 -38.9,106.9 						"/>
						<polygon id="XMLID_103_" class="st4" points="25.9,217.2 90.8,106.9 155.7,217.2 						"/>
						<polygon id="XMLID_102_" class="st4" points="220.6,106.9 155.7,217.2 90.8,106.9 						"/>
						<polygon id="XMLID_101_" class="st4" points="155.7,217.2 220.6,106.9 285.5,217.2 						"/>
						<polygon id="XMLID_100_" class="st4" points="350.4,106.9 285.5,217.2 220.6,106.9 						"/>
						<polygon id="XMLID_99_" class="st4" points="285.5,217.2 350.4,106.9 415.4,217.2 						"/>
						<polygon id="XMLID_98_" class="st3" points="480.3,106.9 415.4,217.2 350.4,106.9 						"/>
						<polygon id="XMLID_97_" points="415.4,217.2 480.3,106.9 545.2,217.2 						"/>
						<polygon id="XMLID_96_" class="st4" points="610.1,106.9 545.2,217.2 480.3,106.9 						"/>
						<polygon id="XMLID_95_" points="545.2,217.2 610.1,106.9 675,217.2 						"/>
						<polygon id="XMLID_94_" points="739.9,106.9 675,217.2 610.1,106.9 						"/>
						<polygon class="st4" points="800.4,217.2 800.4,209.7 739.9,106.9 675,217.2 						"/>
						<polygon class="st4" points="800.4,209.7 800.4,106.9 739.9,106.9 						"/>
						<polygon class="st2" points="-38.9,327.3 25.9,217.2 -38.9,217.2 						"/>
						<polygon class="st2" points="-38.9,327.5 90.8,327.5 25.9,217.2 -38.9,327.3 						"/>
						<polygon id="XMLID_93_" class="st4" points="155.7,217.2 90.8,327.5 25.9,217.2 						"/>
						<polygon id="XMLID_92_" class="st3" points="90.8,327.5 155.7,217.2 220.6,327.5 						"/>
						<polygon id="XMLID_91_" class="st2" points="285.5,217.2 220.6,327.5 155.7,217.2 						"/>
						<polygon id="XMLID_90_" class="st4" points="220.6,327.5 285.5,217.2 350.4,327.5 						"/>
						<polygon id="XMLID_89_" class="st4" points="415.4,217.2 350.4,327.5 285.5,217.2 						"/>
						<polygon id="XMLID_88_" class="st3" points="350.4,327.5 415.4,217.2 480.3,327.5 						"/>
						<polygon id="XMLID_87_" class="st3" points="545.2,217.2 480.3,327.5 415.4,217.2 						"/>
						<polygon id="XMLID_86_" class="st4" points="480.3,327.5 545.2,217.2 610.1,327.5 						"/>
						<polygon id="XMLID_85_" points="675,217.2 610.1,327.5 545.2,217.2 						"/>
						<polygon id="XMLID_84_" class="st3" points="610.1,327.5 675,217.2 739.9,327.5 						"/>
						<polygon class="st4" points="800.4,217.2 675,217.2 739.9,327.5 800.4,224.7 						"/>
						<polygon class="st3" points="800.4,327.5 800.4,224.7 739.9,327.5 						"/>
						<polygon class="st3" points="-38.9,437.7 25.9,437.7 -38.9,327.6 						"/>
						<polygon class="st4" points="-38.9,327.6 25.9,437.7 90.8,327.5 -38.9,327.5 						"/>
						<polygon id="XMLID_83_" class="st4" points="25.9,437.7 90.8,327.5 155.7,437.7 						"/>
						<polygon id="XMLID_82_" class="st4" points="220.6,327.5 155.7,437.7 90.8,327.5 						"/>
						<polygon id="XMLID_81_" class="st2" points="155.7,437.7 220.6,327.5 285.5,437.7 						"/>
						<polygon id="XMLID_80_" class="st2" points="350.4,327.5 285.5,437.7 220.6,327.5 						"/>
						<polygon id="XMLID_79_" class="st4" points="285.5,437.7 350.4,327.5 415.4,437.7 						"/>
						<polygon id="XMLID_78_" class="st2" points="480.3,327.5 415.4,437.7 350.4,327.5 						"/>
						<polygon id="XMLID_77_" class="st2" points="415.4,437.7 480.3,327.5 545.2,437.7 						"/>
						<polygon id="XMLID_76_" points="610.1,327.5 545.2,437.7 480.3,327.5 						"/>
						<polygon id="XMLID_75_" class="st3" points="545.2,437.7 610.1,327.5 675,437.7 						"/>
						<polygon id="XMLID_74_" class="st2" points="739.9,327.5 675,437.7 610.1,327.5 						"/>
						<polygon points="800.4,437.7 800.4,430.2 739.9,327.5 675,437.7 						"/>
						<polygon points="800.4,430.2 800.4,327.5 739.9,327.5 						"/>
						<polygon class="st3" points="-38.9,547.8 25.9,437.7 -38.9,437.7 						"/>
						<polygon class="st3" points="-38.9,548 90.8,548 25.9,437.7 -38.9,547.8 						"/>
						<polygon id="XMLID_73_" class="st4" points="155.7,437.7 90.8,548 25.9,437.7 						"/>
						<polygon id="XMLID_72_" class="st2" points="90.8,548 155.7,437.7 220.6,548 						"/>
						<polygon id="XMLID_71_" points="285.5,437.7 220.6,548 155.7,437.7 						"/>
						<polygon id="XMLID_70_" class="st3" points="220.6,548 285.5,437.7 350.4,548 						"/>
						<polygon id="XMLID_69_" class="st2" points="415.4,437.7 350.4,548 285.5,437.7 						"/>
						<polygon id="XMLID_67_" class="st4" points="350.4,548 415.4,437.7 480.3,548 						"/>
						<polygon id="XMLID_66_" class="st2" points="545.2,437.7 480.3,548 415.4,437.7 						"/>
						<polygon id="XMLID_65_" class="st4" points="480.3,548 545.2,437.7 610.1,548 						"/>
						<polygon id="XMLID_64_" class="st4" points="675,437.7 610.1,548 545.2,437.7 						"/>
						<polygon id="XMLID_63_" class="st4" points="610.1,548 675,437.7 739.9,548 						"/>
						<polygon class="st4" points="800.4,437.7 675,437.7 739.9,548 800.4,445.2 						"/>
						<polygon points="800.4,548 800.4,445.2 739.9,548 						"/>
						<polygon class="st3" points="-38.9,658.2 25.9,658.2 -38.9,548.2 						"/>
						<polygon class="st4" points="-38.9,548.2 25.9,658.2 90.8,548 -38.9,548 						"/>
						<polygon id="XMLID_62_" class="st4" points="25.9,658.2 90.8,548 155.7,658.2 						"/>
						<polygon id="XMLID_61_" class="st4" points="220.6,548 155.7,658.2 90.8,548 						"/>
						<polygon id="XMLID_60_" class="st4" points="155.7,658.2 220.6,548 285.5,658.2 						"/>
						<polygon id="XMLID_57_" class="st2" points="350.4,548 285.5,658.2 220.6,548 						"/>
						<polygon id="XMLID_56_" points="285.5,658.2 350.4,548 415.4,658.2 						"/>
						<polygon id="XMLID_55_" class="st3" points="480.3,548 415.4,658.2 350.4,548 						"/>
						<polygon id="XMLID_54_" class="st4" points="415.4,658.2 480.3,548 545.2,658.2 						"/>
						<polygon id="XMLID_51_" class="st4" points="610.1,548 545.2,658.2 480.3,548 						"/>
						<polygon id="XMLID_49_" class="st3" points="545.2,658.2 610.1,548 675,658.2 						"/>
						<polygon id="XMLID_48_" class="st3" points="739.9,548 675,658.2 610.1,548 						"/>
						<polygon points="800.4,658.2 800.4,650.8 739.9,548 675,658.2 						"/>
						<polygon class="st3" points="800.4,650.8 800.4,548 739.9,548 						"/>
						<polygon points="-38.9,768.3 25.9,658.2 -38.9,658.2 						"/>
						<polygon class="st4" points="-38.9,768.5 90.8,768.5 25.9,658.2 -38.9,768.3 						"/>
						<polygon id="XMLID_47_" class="st4" points="155.7,658.2 90.8,768.5 25.9,658.2 						"/>
						<polygon id="XMLID_46_" class="st3" points="90.8,768.5 155.7,658.2 220.6,768.5 						"/>
						<polygon id="XMLID_45_" class="st3" points="285.5,658.2 220.6,768.5 155.7,658.2 						"/>
						<polygon id="XMLID_44_" class="st4" points="220.6,768.5 285.5,658.2 350.4,768.5 						"/>
						<polygon id="XMLID_43_" class="st4" points="415.4,658.2 350.4,768.5 285.5,658.2 						"/>
						<polygon id="XMLID_41_" class="st3" points="350.4,768.5 415.4,658.2 480.3,768.5 						"/>
						<polygon id="XMLID_40_" class="st4" points="545.2,658.2 480.3,768.5 415.4,658.2 						"/>
						<polygon id="XMLID_38_" class="st2" points="480.3,768.5 545.2,658.2 610.1,768.5 						"/>
						<polygon id="XMLID_37_" points="675,658.2 610.1,768.5 545.2,658.2 						"/>
						<polygon id="XMLID_36_" class="st4" points="610.1,768.5 675,658.2 739.9,768.5 						"/>
						<polygon class="st2" points="800.4,658.2 675,658.2 739.9,768.5 800.4,665.7 						"/>
						<polygon class="st4" points="800.4,768.5 800.4,665.7 739.9,768.5 						"/>
						<polygon class="st3" points="90.2,769.6 90.8,768.5 -38.9,768.5 -38.9,768.7 -38.4,769.6 						"/>
						<polygon class="st2" points="220,769.6 220.6,768.5 90.8,768.5 91.4,769.6 						"/>
						<polygon points="349.8,769.6 350.4,768.5 220.6,768.5 221.3,769.6 						"/>
						<polygon points="479.6,769.6 480.3,768.5 350.4,768.5 351.1,769.6 						"/>
						<polygon class="st4" points="609.5,769.6 610.1,768.5 480.3,768.5 480.9,769.6 						"/>
						<polygon class="st3" points="739.3,769.6 739.9,768.5 610.1,768.5 610.7,769.6 						"/>
						<polygon points="800.4,769.6 800.4,768.5 739.9,768.5 740.6,769.6 						"/>
					</g>
				</g>
			</g>
			<g>
				<defs>
					<rect id="XMLID_33_" width="762" height="762"/>
				</defs>
				<clipPath id="XMLID_5_">
					<use xlink:href="#XMLID_33_"  style="overflow:visible;"/>
				</clipPath>
			</g>
		</g>
	</g>
</g>
</svg>
