<?xml version="1.0" encoding="utf-8"?>
<!-- Generator: Adobe Illustrator 21.0.0, SVG Export Plug-In . SVG Version: 6.00 Build 0)  -->
<svg version="1.1" id="Layer_1" xmlns="http://www.w3.org/2000/svg" xmlns:xlink="http://www.w3.org/1999/xlink" x="0px" y="0px"
	 viewBox="0 0 762 762" style="enable-background:new 0 0 762 762;" xml:space="preserve">
<style type="text/css">
	.st0{display:none;}
	.st1{display:inline;}
	.st2{fill:#F1543F;}
	.st3{fill:#FF7058;}
	.st4{fill:#F9B54C;}
	.st5{fill:#4CDBC4;}
	.st6{fill:#FFFFFF;}
	.st7{fill:#FFD05B;}
	.st8{fill:#E6E9EE;}
	.st9{fill:#2B3B4E;}
	.st10{fill:#324A5E;}
	.st11{fill:#54C0EB;}
	.st12{fill:#84DBFF;}
	.st13{opacity:0.6;}
	.st14{fill:#F7F7F7;}
	.st15{opacity:0.4;}
	.st16{fill:#FFFFF4;}
	.st17{opacity:0.5;}
	.st18{fill:#53DC92;}
	.st19{fill:#74FF9E;}
	.st20{fill:#52C883;}
	.st21{fill:#6BEE97;}
	.st22{fill:#34BE69;}
	.st23{opacity:0.3;}
	.st24{fill:#43AB5F;}
	.st25{fill:#3C3461;}
	.st26{fill:#1C192E;}
	.st27{fill:#FFC98F;}
	.st28{fill:#FFD5A8;}
	.st29{fill:#E6B581;}
	.st30{fill:#DE934B;}
	.st31{fill:#FCB571;}
	.st32{fill:#4F2525;}
	.st33{fill:#C79C6F;}
	.st34{fill:none;stroke:#753737;stroke-width:2;stroke-linecap:round;stroke-linejoin:round;stroke-miterlimit:10;}
	.st35{fill:#F29488;}
	.st36{fill:#DEDEDE;}
	.st37{fill:#BDBDBD;}
	.st38{fill:#696969;}
	.st39{fill:#A66E38;}
	.st40{fill:#E05947;}
	.st41{fill:#8F392D;}
	.st42{fill:#28A7BD;}
	.st43{fill:#734C27;}
</style>
<g id="Layer_1_1_" class="st0">
	<g class="st1">
		<path class="st2" d="M719.2,195.7c0,3-0.8,5.7-2.7,8.3c-8.3-4.5-18.2-6.8-28.4-6.8c-10.6,0-20.4,1.9-28.4,6.8
			c-1.5-2.7-2.7-5.3-2.7-8.3c0-11.4,14-20.8,31-20.8S719.2,184.4,719.2,195.7z"/>
		<path class="st3" d="M741.5,255.9c0,11.7-1.9,23.9-4.9,35.6h-96.9c-0.8-3.4-1.5-6.4-2.3-9.8c9.1-16.3,18.9-43.2,14-71.9
			c9.5-8.7,22.3-12.5,36.3-12.5C717.6,197.2,741.5,213.5,741.5,255.9z"/>
		<path class="st4" d="M722.6,325.6c0,0,2.7,15.1-14.8,30.7l-54.5-26.5c0.4-4.2,1.5-8,3-11.4c8.3,15.1,19.7,25.4,32.2,25.4
			s23.9-10.6,32.2-25.4C721.4,320.6,722.2,322.9,722.6,325.6L722.6,325.6z"/>
		<path class="st5" d="M761.2,354.3c11.1,56.6,9.1,91.3-24.9,75.3L726,396.7c1.9-5.7,9.1-37.5,4.5-57.5L761.2,354.3z"/>
		<g>
			<path class="st6" d="M726,396.7l-12.1-37.9l-6.1-3c17.4-15.5,14.8-30.7,14.8-30.7C739.6,338.4,728.2,389.2,726,396.7z"/>
			<path class="st6" d="M653.7,325.6c-0.4,1.1-0.4,2.7-0.8,4.2l-2.3-1.1C651.4,327.5,652.5,326.3,653.7,325.6z"/>
		</g>
		<path class="st7" d="M739.6,296c-3.4,6.8-9.1,9.8-12.9,7.6c-8.7,22.3-22.7,39.8-39,39.8s-30.3-17.4-39-39.8
			c-3.8,2.3-9.5-1.1-12.9-7.6c-1.5-3-2.3-6.1-2.7-8.7c1.9-2.7,3.8-6.1,5.7-9.8c0.8,0,1.5,0,2.7,0.4l0,0l0.4,0.4l0,0
			c0-0.4-1.5-14.4,35.6-29.5c13.3-5.3,21.6-11.4,26.5-17c1.9,8.3,6.4,20.1,18.6,24.6c0,0,11.4,2.7,10.2,21.6l0,0
			c1.9-0.8,3.8-0.8,5.3,0.4C743,281.3,743.4,289.2,739.6,296z"/>
		<path class="st8" d="M626,389.2L626,389.2c-0.8,5.3-1.9,11-2.7,17L610,366.1C616.6,371.4,622.6,378.6,626,389.2z"/>
		<path class="st4" d="M622.2,302.9c0,0,4.5,25-31.8,46.6l-41.3-20.1c-11-14.4-8.7-26.5-8.7-26.5s0,0-0.4,0c0-0.4,0-0.8,0.4-1.5
			c11.4,14,25.4,23.1,40.9,23.1s29.5-9.1,40.9-23.1C622.2,302.1,622.6,302.5,622.2,302.9C622.6,302.9,622.6,302.9,622.2,302.9z"/>
		<path class="st9" d="M736.3,429.7c-22.7,28-58.8,27.6-91.8,43.2L623,406.2c1.1-5.7,1.9-11.4,2.7-17c0.4,0.8,12.1-43.2,5.7-69.7
			l81.8,39.4L736.3,429.7z"/>
		<g>
			<path class="st6" d="M626,389.2c-3.4-10.6-9.5-18.2-15.9-23.1l-2.7-8.3l-16.7-8c36.3-21.6,31.8-46.6,31.8-46.6
				C645,319.9,626.4,390.3,626,389.2z"/>
			<path class="st6" d="M549.2,329.4l-18.2-8.7c1.5-7.6,4.5-14,9.5-17.8C540.5,302.9,538.2,315,549.2,329.4z"/>
		</g>
		<path class="st7" d="M633.6,269.9c-5.3,16.7-7.6,25.7-7.6,26.9l0,0c-12.1,16.3-27.6,27.6-44.3,27.6c-15.9,0-30.7-9.8-42.4-24.6
			c0,0,0.4,0,0.4,0.4c-11.4-14-14-33.7-13.6-50.7l0,0c4.2-9.8,7.2-21.6,9.1-34.1c15.1,11.4,50,12.1,50,12.1c-17.8-3-20.4-17-20.4-17
			c3,8.7,42.4,14,42.4,14C647.2,230.2,633.6,269.9,633.6,269.9z"/>
		<g>
			<path class="st9" d="M539.3,300.2c0,0-13.3-10.6-24.2-29.2c3.4-5.7,7.2-13.3,10.6-21.6C525.3,266.5,528,286.2,539.3,300.2z"/>
			<path class="st9" d="M626,297.2c0,0,1.9-9.5,7.6-26.9c0,0,13.6-39.8-27.3-45.8c0,0-39.4-5.3-42.4-14c0,0,3,14.4,20.4,17
				c0,0-34.8-0.8-50-12.1c2.3-18.9,0.8-39.8-9.1-60.6c8-4.2,18.2-5.7,32.2-1.9c0,0,55.3-22,83.7,28
				C671.5,234.3,633.6,292.3,626,297.2z"/>
		</g>
		<path class="st10" d="M618.1,241.5h-19.3h-1.9h-30.7h-1.1h-20.4c-6.1,0-11,4.9-11,11v9.1c0,6.1,4.9,11,11,11h21.2
			c2.7,0,5.3-1.1,7.2-2.7c0.8-0.4,1.1-0.8,1.5-1.5c1.5-3.4,4.2-5.3,6.8-5.3c2.7,0,5.3,1.9,6.8,5.3c0.4,0.8,0.8,1.1,1.5,1.5
			c1.9,1.9,4.5,2.7,7.2,2.7h21.2c6.1,0,11-4.9,11-11v-9.1C629.1,246.4,624.1,241.5,618.1,241.5z M544.6,267.3c-3,0-5.7-2.7-5.7-5.7
			v-9.1c0-3,2.7-5.7,5.7-5.7H565h1.1c3,0,5.7,2.7,5.7,5.7v9.1c0,0.8,0,1.5-0.4,2.3c-0.4,0.4-0.4,0.8-0.8,1.1
			c-1.1,1.5-2.7,2.3-4.5,2.3L544.6,267.3L544.6,267.3z M581.4,257.4c-1.5,0-3,0.4-4.5,1.1v-6.4c0-2.3-0.8-4.2-1.5-5.7h12.5
			c-1.1,1.5-1.5,3.8-1.5,5.7v6.4C584.4,257.8,582.9,257.4,581.4,257.4z M623.8,261.6c0,3-2.7,5.7-5.7,5.7h-21.2
			c-1.9,0-3.4-0.8-4.5-2.3c-0.4-0.4-0.4-0.8-0.8-1.1c-0.4-0.8-0.4-1.5-0.4-2.3v-9.1c0-3,2.7-5.7,5.7-5.7h1.9h19.3
			c3,0,5.7,2.7,5.7,5.7V261.6L623.8,261.6z"/>
		<g>
			<path class="st8" d="M375,428.2c0.4,0.8,1.1,1.1,1.5,1.5C376.2,429.3,375.4,428.9,375,428.2L375,428.2z"/>
			<path class="st8" d="M453,351.7c-0.4,0-0.8,0.4-1.1,0.4s-0.8-0.4-1.1-0.4H453z"/>
			<path class="st8" d="M504.1,393.3c-4.2,27.6-11,59.8-22.3,95c-24.6-6.4-48.1-16.7-68.9-29.9c-6.4-23.5-10.6-45.4-13.3-65.1
				c12.1-37.9,52.2-41.3,52.2-41.3S492.4,355.5,504.1,393.3z"/>
		</g>
		<path class="st4" d="M500,291.5c0,0,6.1,34.1-48.1,60.6h-0.4c-54.1-26.5-48.1-60.6-48.1-60.6s0,0-0.4,0c0-0.4,0.4-1.1,0.4-1.5
			c13.3,16.3,29.9,26.9,48.1,26.9s34.5-10.6,48.1-26.9C500,290.7,500.3,291.1,500,291.5C500.3,291.9,500.3,291.5,500,291.5z"/>
		<g>
			<path class="st11" d="M452.3,352.1C452.3,352.1,451.9,352.1,452.3,352.1c-0.4,0-0.4,0-0.4,0H452.3z"/>
			<path class="st11" d="M471.2,357.4l-6.4,18.6h-25.4l-6.4-18.6c10.6-4.5,18.9-5.3,18.9-5.3S460.6,352.8,471.2,357.4z"/>
		</g>
		<path class="st12" d="M480.7,488l-15.9-112.1h-25.4l-12.9,90.5C443.2,475.5,461.3,483.1,480.7,488z"/>
		<path class="st10" d="M412.9,458.5c-41.6-26.5-115.2,0-93.5-111.7l73.4-35.2c-7.6,31.8,6.4,83.3,6.8,82.2
			C402.3,413,406.8,434.6,412.9,458.5z"/>
		<g>
			<path class="st6" d="M500,291.5c0,0,6.1,34.1-48.1,60.6c0,0,40.5,3,52.2,41.3C504.9,394.5,526.8,311.9,500,291.5z"/>
			<path class="st6" d="M403.8,291.5c-26.5,20.1-4.5,103-4.2,101.5c12.1-37.9,52.2-41.3,52.2-41.3
				C397.7,325.9,403.8,291.5,403.8,291.5z"/>
		</g>
		<path class="st7" d="M513.2,252.9c-6.8,20.8-9.1,31.8-9.1,31.8c-14,19.3-32.2,32.2-52.2,32.2c-18.9,0-36-11.7-50-29.2l0.4,0.4
			c-29.5-36.3-9.1-103.4-9.1-103.4c14.8,16.7,62.5,17.8,62.5,17.8c-20.8-3.4-24.2-20.1-24.2-20.1c3.4,10.2,49.6,16.3,49.6,16.3
			C529.1,206.3,513.2,252.9,513.2,252.9z"/>
		<g>
			<path class="st10" d="M424.2,115.1c0,0,65.1-26.1,98.1,32.9c35.6,62.8-9.1,131.4-18.2,136.7c0,0,2.3-11,9.1-31.8
				c0,0,15.9-46.6-31.8-53.8c0,0-46.6-6.1-49.6-16.3c0,0,3.4,16.7,24.2,20.1c0,0-47.7-1.1-62.5-17.8c0,0-20.4,67,9.5,103.4
				c0,0-51.1-40.9-45.1-104.1C357.6,184.4,355,97.7,424.2,115.1z"/>
			<path class="st10" d="M644.6,472.8c-31,14.8-65.9,23.1-102.6,23.1c-20.8,0-40.9-2.7-59.8-7.6c11.4-35.2,18.2-67.4,22.3-95l0,0
				c0.8,0,14-50.7,6.8-82.2l96.2,46.6L644.6,472.8z"/>
		</g>
	</g>
</g>
<g>
	<g class="st13">
		<path class="st14" d="M648.4,129.9c-4,0-7.8,0.8-11.4,1.9c-11.5-16.6-30.6-27.5-52.3-27.5s-40.8,10.9-52.3,27.5
			c-3.6-1.1-7.4-1.9-11.4-1.9c-21.1,0-38.3,17.1-38.3,38.3h204.1C686.7,147,669.6,129.9,648.4,129.9z"/>
	</g>
	<g class="st15">
		<circle class="st16" cx="479" cy="563.2" r="336.7"/>
	</g>
	<g class="st17">
		<circle class="st16" cx="479" cy="563.2" r="212.3"/>
	</g>
	<g>
		<circle class="st6" cx="479" cy="563.2" r="97.3"/>
	</g>
	<g>
		<path class="st18" d="M-104.7,518c-0.7,10.6-1.1,21.2-1.1,31.9c0,71.5,15.4,55.4,42.8,116.7c132.7,14.9,312.2,12.8,353.9,8.6
			c49.6-5,184.5-26.8,206.3-36.7c21.8-9.9,9.7-77.4,9.7-77.4C318.6,561.1,225.6,461.1-104.7,518z"/>
	</g>
	<g>
		<path class="st19" d="M506.9,561.1c-188.2,0-281.3-100-611.6-43.1c-0.1,1.7-0.1,3.5-0.2,5.2C186.9,471.8,273.4,583,444.5,583
			c0,0,6.4,42.7,0.8,68.2c24.9-4.9,44.7-9.5,52-12.8C519,628.6,506.9,561.1,506.9,561.1z"/>
	</g>
	<g>
		<path class="st20" d="M876.9,497.6C558,497.9,437.2,624.5,179.7,624.5v107.1l439.9,167.2C764.8,820.5,865.9,671.3,876.9,497.6z"/>
	</g>
	<g>
		<path class="st21" d="M179.8,624.6v35.1c20.5,8.5,20,11.8,58.3,11.8c113.9,0,325.5-129.6,418.7-151.2
			C483.5,556.8,368.2,624.6,179.8,624.6z"/>
	</g>
	<g>
		<path class="st22" d="M-92.1,581.5c52,215.9,246.3,376.4,478.2,376.4c18.2,0,36.1-1.1,53.7-3c25.1-68.8,59.4-203.3,59.4-203.3
			C372.2,751.6,234.4,577-90,577L-92.1,581.5z"/>
	</g>
	<g class="st23">
		<g>
			<path class="st19" d="M489.1,751.1C364.8,742.4,225.8,577-90,577l-2.1,4.5c1.2,4.9,2.5,9.7,3.8,14.5
				C137.7,597.7,248.8,751.2,489.1,751.1L489.1,751.1z"/>
		</g>
	</g>
	<g>
		<path class="st6" d="M694.4,332.7c0-17.6-14.2-31.8-31.8-31.8c-2.7,0-5.2,0.4-7.6,1c-8.3-9-20.1-14.7-33.2-14.7
			c-25.1,0-45.4,20.3-45.4,45.4L694.4,332.7L694.4,332.7z"/>
	</g>
	<g>
		<path class="st24" d="M386.1,957.9c204.2,0,379.3-124.4,453.7-301.5h-9.4c-280.9,0-479,220.9-712.2,222.1
			C195.3,928.6,287.3,957.9,386.1,957.9z"/>
	</g>
	<g>
		<path class="st14" d="M846.8,293.2c-6-3-12.6-4.8-19.7-4.8c-4.6,0-9,0.9-13.2,2.2c-13.3-19.2-35.4-31.7-60.5-31.7
			s-47.2,12.6-60.5,31.7c-4.2-1.3-8.6-2.2-13.2-2.2c-24.4,0-44.3,19.8-44.3,44.3h224.3C855.9,319.3,851.7,306.1,846.8,293.2z"/>
	</g>
	<g class="st13">
		<path class="st14" d="M284.7,168.1c0-30.7,24.9-55.5,55.5-55.5c4.6,0,9.1,0.7,13.4,1.8c14.5-15.7,35-25.6,58.1-25.6
			c43.8,0,79.4,35.5,79.4,79.4L284.7,168.1L284.7,168.1z"/>
	</g>
	<g>
		<path class="st14" d="M370.2,196.1c0-30.7,24.9-55.5,55.5-55.5c4.6,0,9.1,0.7,13.4,1.8c14.5-15.7,35-25.6,58.1-25.6
			c43.8,0,79.4,35.5,79.4,79.4L370.2,196.1L370.2,196.1z"/>
	</g>
	<g>
		<path class="st14" d="M15.1,88.8c0-30.7,24.9-55.5,55.5-55.5c4.6,0,9.1,0.7,13.4,1.8c14.5-15.7,35-25.6,58.1-25.6
			c43.8,0,79.4,35.5,79.4,79.4L15.1,88.8L15.1,88.8z"/>
	</g>
	<g>
		<g>
			<g>
				<path class="st18" d="M60.3,518.8c-2.9,0-5.3-2.4-5.3-5.3v-57.4c0-2.9,2.4-5.3,5.3-5.3c2.9,0,5.3,2.4,5.3,5.3v57.4
					C65.7,516.4,63.3,518.8,60.3,518.8z"/>
			</g>
		</g>
		<g>
			<g>
				<path class="st18" d="M93.1,452c0,18.1-14.7,32.8-32.8,32.8S27.5,470.1,27.5,452c0-18.1,14.7-73.8,32.8-73.8
					S93.1,433.9,93.1,452z"/>
			</g>
		</g>
	</g>
	<g>
		<g>
			<g>
				<path class="st20" d="M686.7,539.8c-4.7,0-8.6-3.8-8.6-8.6v-92.3c0-4.7,3.8-8.6,8.6-8.6c4.7,0,8.6,3.8,8.6,8.6v92.3
					C695.3,536,691.5,539.8,686.7,539.8z"/>
			</g>
		</g>
		<g>
			<g>
				<path class="st20" d="M739.5,432.3c0,29.1-23.6,52.8-52.8,52.8c-29.1,0-52.8-23.6-52.8-52.8s23.6-118.7,52.8-118.7
					S739.5,403.2,739.5,432.3z"/>
			</g>
		</g>
	</g>
	<g>
		<g>
			<g>
				<path class="st20" d="M600.9,555.9c-3,0-5.4-2.4-5.4-5.4v-57.8c0-3,2.4-5.4,5.4-5.4s5.4,2.4,5.4,5.4v57.8
					C606.3,553.5,603.9,555.9,600.9,555.9z"/>
			</g>
		</g>
		<g>
			<g>
				<path class="st20" d="M634,488.6c0,18.3-14.8,33.1-33.1,33.1s-33.1-14.8-33.1-33.1c0-18.3,14.8-74.4,33.1-74.4
					S634,470.3,634,488.6z"/>
			</g>
		</g>
	</g>
	<g>
		<g>
			<g>
				<path class="st21" d="M254.7,642.8c-3,0-5.5-2.5-5.5-5.5v-59.2c0-3,2.5-5.5,5.5-5.5c3,0,5.5,2.5,5.5,5.5v59.2
					C260.2,640.3,257.7,642.8,254.7,642.8z"/>
			</g>
		</g>
		<g>
			<path class="st21" d="M288.5,573.8c0,18.7-15.2,33.9-33.9,33.9s-33.9-15.2-33.9-33.9s15.2-76.2,33.9-76.2
				C273.4,497.6,288.5,555.1,288.5,573.8z"/>
		</g>
	</g>
	<g>
		<g>
			<g>
				<path class="st19" d="M137.2,528.4c-1.8,0-3.3-1.5-3.3-3.3v-35.6c0-1.8,1.5-3.3,3.3-3.3s3.3,1.5,3.3,3.3v35.6
					C140.5,526.9,139,528.4,137.2,528.4z"/>
			</g>
		</g>
		<g>
			<g>
				<path class="st19" d="M157.5,486.9c0,11.2-9.1,20.4-20.4,20.4s-20.4-9.1-20.4-20.4c0-11.2,9.1-45.8,20.4-45.8
					S157.5,475.7,157.5,486.9z"/>
			</g>
		</g>
	</g>
</g>
<g>
	<path class="st25" d="M504.8,610.5c-0.4,1.1-0.6,2.3-0.6,3.5l6.1,72.2h18.1l1.7-50c0.6,0,1.1,0.1,1.7,0.1h5.2c0.6,0,1.1,0,1.7-0.1
		l1.7,50h18.1l6.1-72.2c0-1.2-0.2-2.4-0.6-3.5H504.8z"/>
	<path class="st26" d="M553.6,622.9c0,5.3,4.1,9.5,9.3,9.8l1.6-18.7c0-0.3,0-0.7-0.1-1c-0.3,0-0.6,0-0.9,0
		C558,613,553.6,617.4,553.6,622.9z"/>
	<path class="st26" d="M504.9,613c-0.2,0-0.5,0-0.7,0c0,0.3-0.1,0.7-0.1,1l1.6,18.7c5.1-0.4,9-4.7,9-9.8
		C514.8,617.4,510.4,613,504.9,613z"/>
	<path class="st26" d="M504.8,610.5c-0.4,1.1-0.6,2.3-0.6,3.5l0.7,8.9c8.9-2.4,18.9-3.6,29.4-3.6c10.5,0,20.5,1.2,29.4,3.6l0.7-8.9
		c0-1.2-0.2-2.4-0.6-3.5H504.8z"/>
	<path class="st27" d="M570.3,583.8c0.8,4.1,4.8,6.7,8.8,5.9l0,0c4.1-0.8,6.7-4.8,5.9-8.8l-7.8-37.3c-0.8-4.1-4.8-6.7-8.8-5.9l0,0
		c-4.1,0.8-6.7,4.8-5.9,8.8L570.3,583.8z"/>
	<g>
		<path class="st27" d="M495.9,610.5c-0.3,4.1-3.9,7.2-8,6.9l0,0c-4.1-0.3-7.2-3.9-6.9-8l3.6-48.3c0.3-4.1,3.9-7.2,8-6.9l0,0
			c4.1,0.3,7.2,3.9,6.9,8L495.9,610.5z"/>
		<circle class="st28" cx="487.8" cy="617.5" r="11.3"/>
		<path class="st29" d="M501.1,617.8c0.9,1.3,0.7,3.1-0.6,4l-5.8,4.3c-1.3,0.9-3.1,0.7-4-0.6l0,0c-0.9-1.3-0.7-3,0.6-4l5.8-4.3
			C498.4,616.3,500.2,616.6,501.1,617.8L501.1,617.8z"/>
	</g>
	<path class="st30" d="M534.3,615.2c11.1,0,21.6,1.4,30.9,4l-0.9-58.9l1.9,7.3l23-4c0,0-3-17.2-4.1-21.3
		C573,502.1,552.5,505,534.3,505c-18.2,0-38.7-2.9-50.7,37.5c-1.2,4-4.2,21.3-4.2,21.3l23,4l1.9-7.3l-0.9,58.9
		C512.7,616.5,523.2,615.2,534.3,615.2z"/>
	<polygon class="st31" points="564.9,601.7 564.7,586.5 503.9,586.5 503.7,601.7 	"/>
	<path class="st31" d="M479.4,563.7l23,4l1.9-7.3l-0.2,13.2h60.3l-0.2-13.2l1.9,7.3l23-4c0,0-0.4-2.3-0.9-5.3H480.3
		C479.8,561.4,479.4,563.7,479.4,563.7z"/>
	<path class="st31" d="M483.6,542.4c-0.2,0.7-0.5,1.7-0.7,3h102.9c-0.3-1.3-0.5-2.3-0.7-3c-1.4-4.6-2.9-8.6-4.4-12.2H488
		C486.4,533.8,484.9,537.8,483.6,542.4z"/>
	<path class="st31" d="M495.7,517.3h77.2c-11.4-13.9-25.6-12.4-38.6-12.4C521.3,505,507.2,503.5,495.7,517.3z"/>
	<g>
		<path class="st27" d="M479.4,422.2c-10.7,0-19.3,8.6-19.3,19.3v0c0,10.7,8.6,19.3,19.3,19.3c10.6,0,19.3-8.6,19.3-19.3v0
			C498.7,430.9,490.1,422.2,479.4,422.2z"/>
		<path class="st27" d="M589.2,422.2c-10.7,0-19.3,8.6-19.3,19.3v0c0,10.7,8.6,19.3,19.3,19.3c10.7,0,19.3-8.6,19.3-19.3v0
			C608.5,430.9,599.8,422.2,589.2,422.2z"/>
	</g>
	<g>
		<path class="st29" d="M486.5,424.7c-9.3,0-16.8,7.5-16.8,16.8v0c0,9.3,7.5,16.8,16.8,16.8c9.3,0,16.8-7.5,16.8-16.8v0
			C503.3,432.2,495.8,424.7,486.5,424.7z"/>
		<path class="st29" d="M582.1,424.7c-9.3,0-16.8,7.5-16.8,16.8v0c0,9.3,7.5,16.8,16.8,16.8c9.3,0,16.8-7.5,16.8-16.8v0
			C598.9,432.2,591.4,424.7,582.1,424.7z"/>
	</g>
	<path class="st27" d="M547,507.2c0,7-5.7,12.7-12.7,12.7l0,0c-7,0-12.7-5.7-12.7-12.7v-30.1c0-7,5.7-12.7,12.7-12.7l0,0
		c7,0,12.7,5.7,12.7,12.7V507.2z"/>
	<path class="st29" d="M534.3,464.4c-7,0-12.7,5.7-12.7,12.7v20.8c4.5,1.2,9.3,1.9,14.2,1.9c3.9,0,7.6-0.4,11.2-1.2v-21.5
		C547,470.1,541.3,464.4,534.3,464.4z"/>
	<g>
		<path class="st28" d="M590.7,441.5c0,30.3-24.6,54.9-54.9,54.9l0,0c-30.3,0-54.9-24.6-54.9-54.9v-13.3c0-30.3,24.6-54.9,54.9-54.9
			l0,0c30.3,0,54.9,24.6,54.9,54.9V441.5z"/>
		<path class="st32" d="M535.8,361.5c-30.3,0-54.9,24.6-54.9,54.9v13.3c0,2.5,0.2,4.9,0.5,7.3c3.6-26.9,36.9-23.3,61.9-42.1
			c21.3,19.9,43.2,15.3,46.8,42.1c0.3-2.4,0.5-4.8,0.5-7.3v-13.3C590.7,386.1,566.1,361.5,535.8,361.5z"/>
		<g>
			<path class="st33" d="M538.2,440.6l1.3,1c0.4,0.3,0.9,0.6,1.3,0.9c0.4,0.3,0.8,0.6,1.3,0.9c0.2,0.1,0.4,0.3,0.6,0.4
				c0.2,0.1,0.4,0.3,0.6,0.4c0.4,0.3,0.9,0.5,1.3,0.7l0.6,0.3c0.2,0.1,0.4,0.1,0.6,0.2c0.2,0.1,0.4,0.1,0.6,0.2
				c0.2,0,0.4,0.1,0.6,0.1c0.2,0,0.4,0,0.6,0c0.2,0,0.3-0.1,0.5-0.1l2.1-0.2l-0.3,1.9c-0.1,0.4-0.1,0.6-0.2,1
				c-0.1,0.3-0.2,0.6-0.3,0.9c-0.2,0.6-0.5,1.1-0.7,1.7c-0.1,0.3-0.3,0.5-0.5,0.8c-0.2,0.3-0.4,0.5-0.5,0.7
				c-0.4,0.5-0.8,0.9-1.3,1.3c-0.2,0.2-0.5,0.4-0.7,0.6c-0.3,0.2-0.5,0.3-0.8,0.5c-0.3,0.1-0.6,0.2-0.8,0.4
				c-0.3,0.1-0.6,0.2-0.9,0.3c-0.3,0.1-0.6,0.1-0.9,0.2c-0.3,0-0.6,0.1-0.9,0.1c-0.6,0-1.2-0.1-1.7-0.2c0.3-0.1,0.5-0.2,0.8-0.3
				c0.3-0.1,0.5-0.2,0.7-0.3c0.2-0.1,0.5-0.2,0.7-0.4c0.2-0.1,0.4-0.3,0.6-0.4c0.2-0.1,0.4-0.3,0.6-0.4c0.2-0.2,0.4-0.3,0.6-0.5
				c0.2-0.2,0.3-0.4,0.5-0.5c0.2-0.2,0.3-0.4,0.5-0.6c0.2-0.2,0.3-0.4,0.4-0.6c0.1-0.2,0.3-0.4,0.4-0.6c0.1-0.2,0.2-0.4,0.3-0.6
				c0.1-0.2,0.2-0.4,0.3-0.7c0.2-0.4,0.4-0.9,0.5-1.4c0.1-0.2,0.1-0.5,0.2-0.7l0.1-0.6l1.8,1.7c-0.4,0.1-0.7,0.1-1.1,0.1
				c-0.4,0-0.7,0-1,0c-0.4,0-0.7-0.1-1-0.2c-0.3-0.1-0.6-0.2-0.9-0.3c-0.3-0.1-0.6-0.2-0.8-0.4c-0.3-0.2-0.5-0.3-0.8-0.5
				c-0.5-0.3-0.9-0.7-1.4-1.1c-0.2-0.2-0.4-0.4-0.6-0.6c-0.2-0.2-0.4-0.4-0.6-0.6c-0.4-0.4-0.7-0.9-1-1.3
				C539.1,442.6,538.6,441.6,538.2,440.6z"/>
		</g>
		<path class="st6" d="M537.7,466.8c-7.6,0-14.7-1.4-20.5-3.8c3.1,8.3,11.1,14.2,20.5,14.2s17.5-5.9,20.5-14.2
			C552.4,465.3,545.3,466.8,537.7,466.8z"/>
		<path class="st34" d="M522.2,440.6c-1.9-2.8-5.2-4.7-8.9-4.7c-3.7,0-7,1.9-8.9,4.7"/>
		<path class="st34" d="M568.7,440.6c-1.9-2.8-5.2-4.7-8.9-4.7s-7,1.9-8.9,4.7"/>
		<circle class="st35" cx="500.4" cy="458.1" r="10.4"/>
		<circle class="st35" cx="572.8" cy="458.1" r="10.4"/>
		<g>
			<path class="st32" d="M524.5,422.8c0,0-0.4-0.1-1-0.4c-0.3-0.1-0.7-0.2-1.1-0.4c-0.4-0.2-0.9-0.2-1.4-0.4
				c-0.5-0.1-1.1-0.2-1.7-0.3c-0.6,0-1.3-0.1-1.9-0.1c-0.3,0-0.7,0-1,0c-0.3,0-0.7,0-1,0.1c-0.7,0-1.4,0.1-2.1,0.2
				c-0.6,0.1-1.5,0.2-2.1,0.4c-0.3,0.1-0.7,0.2-1,0.2c-0.3,0.1-0.7,0.2-1,0.3c-0.7,0.2-1.2,0.4-1.8,0.6c-0.6,0.3-1.1,0.5-1.6,0.7
				c-0.5,0.3-0.9,0.5-1.3,0.7c-0.4,0.3-0.7,0.4-1,0.6c-0.5,0.4-0.8,0.6-0.8,0.6s0.2-0.3,0.5-0.9c0.2-0.3,0.5-0.6,0.8-1
				c0.3-0.4,0.7-0.7,1.2-1.1c0.5-0.4,1-0.7,1.6-1.1c0.6-0.3,1.2-0.7,1.9-0.9c0.3-0.1,0.7-0.3,1-0.4c0.4-0.1,0.7-0.2,1.1-0.3
				c0.8-0.2,1.4-0.3,2.3-0.5c0.8-0.1,1.6-0.2,2.3-0.1c0.4,0,0.8,0,1.1,0c0.4,0,0.8,0.1,1.1,0.1c0.7,0,1.4,0.3,2.1,0.4
				c0.6,0.2,1.3,0.4,1.8,0.6c0.5,0.3,1,0.5,1.4,0.8c0.4,0.3,0.8,0.5,1,0.7C524.3,422.5,524.5,422.8,524.5,422.8z"/>
		</g>
		<g>
			<path class="st32" d="M548.8,422.8c0,0,0.3-0.3,0.8-0.7c0.2-0.2,0.6-0.4,1-0.7c0.4-0.3,0.9-0.5,1.4-0.8c0.5-0.2,1.1-0.4,1.8-0.6
				c0.7-0.1,1.3-0.4,2.1-0.4c0.4,0,0.7-0.1,1.1-0.1c0.4,0,0.8,0,1.1,0c0.8,0,1.6,0.1,2.3,0.1c0.8,0.2,1.5,0.2,2.3,0.5
				c0.4,0.1,0.8,0.2,1.1,0.3c0.4,0.1,0.7,0.3,1,0.4c0.7,0.2,1.3,0.6,1.9,0.9c0.6,0.4,1.1,0.7,1.6,1.1c0.4,0.4,0.9,0.7,1.2,1.1
				c0.3,0.4,0.6,0.7,0.8,1c0.4,0.6,0.5,0.9,0.5,0.9s-0.3-0.2-0.8-0.6c-0.2-0.2-0.6-0.4-1-0.6c-0.4-0.3-0.8-0.5-1.3-0.7
				c-0.5-0.2-1-0.5-1.6-0.7c-0.6-0.2-1.2-0.5-1.8-0.6c-0.3-0.1-0.6-0.2-1-0.3c-0.3-0.1-0.7-0.1-1-0.2c-0.6-0.2-1.5-0.3-2.1-0.4
				c-0.7-0.1-1.4-0.2-2.1-0.2c-0.4,0-0.7,0-1-0.1c-0.3,0-0.7,0-1,0c-0.7,0-1.3,0.1-1.9,0.1c-0.6,0.1-1.2,0.2-1.7,0.3
				c-0.5,0.1-1,0.2-1.4,0.4c-0.4,0.1-0.8,0.2-1.1,0.4C549.1,422.7,548.8,422.8,548.8,422.8z"/>
		</g>
	</g>
	<g>
		<g>
			<path class="st32" d="M531.2,693.9c1-1.7,1.5-3.7,1.5-5.7c0-7.3-3-13.3-11.5-13.3h-13c-8.5,0-22.3,6-22.3,13.3
				c0,2.1,0.6,4,1.5,5.7H531.2z"/>
			<path class="st36" d="M532.8,688.1c0-3.8-0.8-7.2-2.7-9.6c-6.7,1.9-11.7,8-11.7,15.3h12.9C532.2,692.1,532.8,690.2,532.8,688.1z"
				/>
			<path class="st37" d="M531.8,694.1c0,0.8-0.6,1.4-1.4,1.4h-42.1c-0.8,0-1.4-0.6-1.4-1.4l0,0c0-0.8,0.6-1.4,1.4-1.4h42.1
				C531.2,692.7,531.8,693.4,531.8,694.1L531.8,694.1z"/>
			<path class="st36" d="M496.6,681.8c0.2,0.6,0,1.2-0.6,1.5l0,0c-0.6,0.2-1.2,0-1.5-0.6l-1.6-3.8c-0.2-0.6,0-1.2,0.6-1.5l0,0
				c0.6-0.2,1.2,0,1.5,0.6L496.6,681.8z"/>
			<path class="st36" d="M500.4,679.9c0.2,0.6,0,1.2-0.6,1.5l0,0c-0.6,0.2-1.2,0-1.5-0.6l-1.6-3.8c-0.2-0.6,0-1.2,0.6-1.5l0,0
				c0.6-0.2,1.2,0,1.5,0.6L500.4,679.9z"/>
			<path class="st36" d="M505,678.6c0.2,0.6,0,1.2-0.6,1.5l0,0c-0.6,0.2-1.2,0-1.5-0.6l-1.6-3.8c-0.2-0.6,0-1.2,0.6-1.5l0,0
				c0.6-0.2,1.2,0,1.5,0.6L505,678.6z"/>
		</g>
		<g>
			<path class="st32" d="M537.4,693.9c-1-1.7-1.5-3.7-1.5-5.7c0-7.3,3-13.3,11.5-13.3h13c8.5,0,22.3,6,22.3,13.3
				c0,2.1-0.6,4-1.5,5.7H537.4z"/>
			<path class="st36" d="M538.6,678.5c-1.9,2.4-2.7,5.8-2.7,9.6c0,2.1,0.6,4,1.5,5.7h12.9C550.2,686.6,545.3,680.4,538.6,678.5z"/>
			<path class="st37" d="M536.8,694.1c0,0.8,0.6,1.4,1.4,1.4h42.1c0.8,0,1.4-0.6,1.4-1.4l0,0c0-0.8-0.6-1.4-1.4-1.4h-42.1
				C537.4,692.7,536.8,693.4,536.8,694.1L536.8,694.1z"/>
			<path class="st36" d="M572,681.8c-0.2,0.6,0,1.2,0.6,1.5l0,0c0.6,0.2,1.2,0,1.5-0.6l1.6-3.8c0.2-0.6,0-1.2-0.6-1.5l0,0
				c-0.6-0.2-1.2,0-1.5,0.6L572,681.8z"/>
			<path class="st36" d="M568.1,679.9c-0.2,0.6,0,1.2,0.6,1.5l0,0c0.6,0.2,1.2,0,1.5-0.6l1.6-3.8c0.2-0.6,0-1.2-0.6-1.5l0,0
				c-0.6-0.2-1.2,0-1.5,0.6L568.1,679.9z"/>
			<path class="st36" d="M563.5,678.6c-0.2,0.6,0,1.2,0.6,1.5l0,0c0.6,0.2,1.2,0,1.5-0.6l1.6-3.8c0.2-0.6,0-1.2-0.6-1.5l0,0
				c-0.6-0.2-1.2,0-1.5,0.6L563.5,678.6z"/>
		</g>
	</g>
	<g>
		<path class="st32" d="M621.9,632.7c-2.5,10-12.7,16.2-22.7,13.7l-73-18.1c-10-2.5-16.2-12.7-13.7-22.7l0,0
			c2.5-10,12.7-16.2,22.7-13.7l73,18.1C618.3,612.5,624.4,622.7,621.9,632.7L621.9,632.7z"/>
		<g>
			<g>
				<path class="st37" d="M536.4,607.7l-5.1-1.3l-1.8,7.3l5.1,1.3c2,0.5,4-0.7,4.5-2.7C539.6,610.2,538.4,608.2,536.4,607.7z"/>
				<path class="st36" d="M530,620.8c-0.2,1-1.2,1.5-2.2,1.3l0,0c-1-0.2-1.5-1.2-1.3-2.2l5.1-20.4c0.2-1,1.2-1.5,2.2-1.3l0,0
					c1,0.2,1.5,1.2,1.3,2.2L530,620.8z"/>
				<path class="st38" d="M536.6,611.6c-0.2,0.7-0.8,1.1-1.5,0.9l0,0c-0.7-0.2-1.1-0.8-0.9-1.5l0,0c0.2-0.7,0.8-1.1,1.5-0.9l0,0
					C536.4,610.2,536.8,610.9,536.6,611.6L536.6,611.6z"/>
				<path class="st30" d="M539.6,599.6c-0.4,1.4-1.8,2.3-3.2,2l-6.5-1.6c-1.4-0.4-2.3-1.8-2-3.2l0,0c0.4-1.4,1.8-2.3,3.2-2l6.5,1.6
					C539.1,596.7,539.9,598.2,539.6,599.6L539.6,599.6z"/>
				<path class="st30" d="M533.7,623.5c-0.4,1.4-1.8,2.3-3.2,2l-6.5-1.6c-1.4-0.4-2.3-1.8-2-3.2l0,0c0.4-1.4,1.8-2.3,3.2-2l6.5,1.6
					C533.1,620.7,534,622.1,533.7,623.5L533.7,623.5z"/>
			</g>
			<g>
				<path class="st37" d="M598.1,630.7l5.1,1.3l1.8-7.3l-5.1-1.3c-2-0.5-4,0.7-4.5,2.7C594.9,628.2,596.1,630.2,598.1,630.7z"/>
				<path class="st36" d="M604.6,617.6c0.2-1,1.2-1.5,2.2-1.3l0,0c1,0.2,1.5,1.2,1.3,2.2l-5.1,20.4c-0.2,1-1.2,1.5-2.2,1.3l0,0
					c-1-0.2-1.5-1.2-1.3-2.2L604.6,617.6z"/>
				<path class="st38" d="M597.9,626.8c0.2-0.7,0.8-1.1,1.5-0.9l0,0c0.7,0.2,1.1,0.8,0.9,1.5l0,0c-0.2,0.7-0.8,1.1-1.5,0.9l0,0
					C598.2,628.1,597.7,627.4,597.9,626.8L597.9,626.8z"/>
				<path class="st30" d="M594.9,638.7c0.4-1.4,1.8-2.3,3.2-2l6.5,1.6c1.4,0.4,2.3,1.8,2,3.2l0,0c-0.4,1.4-1.8,2.3-3.2,2l-6.5-1.6
					C595.5,641.6,594.6,640.2,594.9,638.7L594.9,638.7z"/>
				<path class="st30" d="M600.9,614.8c0.4-1.4,1.8-2.3,3.2-2l6.5,1.6c1.4,0.4,2.3,1.8,2,3.2l0,0c-0.4,1.4-1.8,2.3-3.2,2l-6.5-1.6
					C601.4,617.7,600.5,616.3,600.9,614.8L600.9,614.8z"/>
			</g>
		</g>
	</g>
	<g>
		<path class="st28" d="M564.4,619.8c-0.7,4.1,2.1,7.9,6.2,8.6l0,0c4.1,0.7,7.9-2.1,8.6-6.2l6-37.7c0.7-4.1-2.1-7.9-6.2-8.6l0,0
			c-4.1-0.7-7.9,2.1-8.6,6.2L564.4,619.8z"/>
		<path class="st27" d="M565.7,622.2c1.1,1.2,1,3-0.1,4l-5.3,4.9c-1.2,1.1-3,1-4-0.1l0,0c-1.1-1.2-1-3,0.1-4l5.3-4.9
			C562.8,621,564.6,621.1,565.7,622.2L565.7,622.2z"/>
		<path class="st28" d="M572.9,618.4c6.1,1.3,10,7.2,8.8,13.3l-1.5,6.6c-1.3,6.1-7.2,10-13.3,8.8l0,0c-6.1-1.3-10-7.2-8.8-13.3
			l1.5-6.6C560.8,621,566.8,617.1,572.9,618.4L572.9,618.4z"/>
	</g>
</g>
<g>
	<path class="st27" d="M340.7,627.9c-0.4,1.1-0.6,2.3-0.6,3.5l6.1,72.2h18.1l1.7-50c0.6,0,1.1,0.1,1.7,0.1h5.2c0.6,0,1.1,0,1.7-0.1
		l1.7,50h18.1l6.1-72.2c0-1.2-0.2-2.4-0.6-3.5H340.7z"/>
	<polygon class="st35" points="344.7,686.9 346.1,703.6 364.2,703.6 364.8,686.9 	"/>
	<polygon class="st35" points="375.6,686.9 376.1,703.6 394.2,703.6 395.6,686.9 	"/>
	<path class="st30" d="M340.7,627.9c-0.4,1.1-0.6,2.3-0.6,3.5l0.1,50.2h26.2l-0.5-28c0.6,0,1.1,0.1,1.7,0.1h5.2c0.6,0,1.1,0,1.7-0.1
		l-0.5,28h26.2l0.1-50.2c0-1.2-0.2-2.4-0.6-3.5H340.7z"/>
	<path class="st39" d="M340,639.7c9.2-2.1,19.4-3.1,30.1-3.1c10.7,0,20.9,1.1,30.1,3.1l0-8.3c0-1.2-0.2-2.4-0.6-3.5h-59
		c-0.4,1.1-0.6,2.3-0.6,3.5L340,639.7z"/>
	<path class="st27" d="M331.1,592.5c-0.8,4.1-4.8,6.7-8.8,5.9l0,0c-4.1-0.8-6.7-4.8-5.9-8.8l7.8-37.3c0.8-4.1,4.8-6.7,8.8-5.9l0,0
		c4.1,0.8,6.7,4.8,5.9,8.8L331.1,592.5z"/>
	<g>
		<path class="st27" d="M408.2,627.9c0.3,4.1,3.9,7.2,8,6.9l0,0c4.1-0.3,7.2-3.9,6.9-8l-5.6-72.6c-0.3-4.1-3.9-7.2-8-6.9l0,0
			c-4.1,0.3-7.2,3.9-6.9,8L408.2,627.9z"/>
		<circle class="st28" cx="416.3" cy="634.9" r="11.3"/>
		<path class="st29" d="M403,635.2c-0.9,1.3-0.7,3.1,0.6,4l5.8,4.3c1.3,0.9,3,0.7,4-0.6l0,0c0.9-1.3,0.7-3.1-0.6-4l-5.8-4.3
			C405.7,633.7,403.9,633.9,403,635.2L403,635.2z"/>
	</g>
	<path class="st35" d="M400,567.1l20.8-7.6c-12.1-40-32.5-36.9-50.6-36.9c-18.2,0-38.7-3.1-50.7,37.3l20.6,7.5l0.1,10.4l-0.4,23.3
		l-0.6,35.5c9.3-2.7,19.8-4,30.9-4c11.1,0,21.6,1.4,30.9,4l-0.9-58.9L400,567.1z"/>
	<path class="st6" d="M390.9,568.9c0-7.2-5.8-13-13-13c-2.9,0-5.5,1-7.7,2.5c-2.2-1.6-4.8-2.5-7.7-2.5c-7.2,0-13,5.8-13,13
		c0,4,1.8,7.6,4.7,10h0l0,0c0.2,0.2,0.4,0.3,0.6,0.4l15.5,11.8l15.5-11.8c0.2-0.1,0.4-0.3,0.6-0.4l0,0h0
		C389.1,576.4,390.9,572.9,390.9,568.9z"/>
	<g>
		<g>
			<path class="st40" d="M367.1,711.3c1-1.7,1.5-3.7,1.5-5.7c0-7.3-3-13.3-11.5-13.3h-13c-8.5,0-22.3,6-22.3,13.3
				c0,2.1,0.6,4,1.5,5.7H367.1z"/>
			<path class="st41" d="M367.7,711.5c0,0.8-0.6,1.4-1.4,1.4h-42.1c-0.8,0-1.4-0.6-1.4-1.4l0,0c0-0.8,0.6-1.4,1.4-1.4h42.1
				C367,710.1,367.7,710.8,367.7,711.5L367.7,711.5z"/>
			<path class="st41" d="M332.4,699.2c0.2,0.6,0,1.2-0.6,1.5l0,0c-0.6,0.2-1.2,0-1.5-0.6l-1.6-3.8c-0.2-0.6,0-1.2,0.6-1.5l0,0
				c0.6-0.2,1.2,0,1.5,0.6L332.4,699.2z"/>
			<path class="st41" d="M336.3,697.3c0.2,0.6,0,1.2-0.6,1.5l0,0c-0.6,0.2-1.2,0-1.5-0.6l-1.6-3.8c-0.2-0.6,0-1.2,0.6-1.5l0,0
				c0.6-0.2,1.2,0,1.5,0.6L336.3,697.3z"/>
			<path class="st41" d="M340.9,696c0.2,0.6,0,1.2-0.6,1.5l0,0c-0.6,0.2-1.2,0-1.5-0.6l-1.6-3.8c-0.2-0.6,0-1.2,0.6-1.5l0,0
				c0.6-0.2,1.2,0,1.5,0.6L340.9,696z"/>
		</g>
		<g>
			<path class="st40" d="M373.2,711.3c-1-1.7-1.5-3.7-1.5-5.7c0-7.3,3-13.3,11.5-13.3h13c8.5,0,22.3,6,22.3,13.3
				c0,2.1-0.6,4-1.5,5.7H373.2z"/>
			<path class="st41" d="M372.7,711.5c0,0.8,0.6,1.4,1.4,1.4h42.1c0.8,0,1.4-0.6,1.4-1.4l0,0c0-0.8-0.6-1.4-1.4-1.4H374
				C373.3,710.1,372.7,710.8,372.7,711.5L372.7,711.5z"/>
			<path class="st41" d="M407.9,699.2c-0.2,0.6,0,1.2,0.6,1.5l0,0c0.6,0.2,1.2,0,1.5-0.6l1.6-3.8c0.2-0.6,0-1.2-0.6-1.5l0,0
				c-0.6-0.2-1.2,0-1.5,0.6L407.9,699.2z"/>
			<path class="st41" d="M404,697.3c-0.2,0.6,0,1.2,0.6,1.5l0,0c0.6,0.2,1.2,0,1.5-0.6l1.6-3.8c0.2-0.6,0-1.2-0.6-1.5l0,0
				c-0.6-0.2-1.2,0-1.5,0.6L404,697.3z"/>
			<path class="st41" d="M399.4,696c-0.2,0.6,0,1.2,0.6,1.5l0,0c0.6,0.2,1.2,0,1.5-0.6l1.6-3.8c0.2-0.6,0-1.2-0.6-1.5l0,0
				c-0.6-0.2-1.2,0-1.5,0.6L399.4,696z"/>
		</g>
	</g>
	<path class="st42" d="M361.9,653.9c0,8.5-6.9,15.3-15.3,15.3l0,0c-8.5,0-15.3-6.9-15.3-15.3v-19.6c0-8.5,6.9-15.3,15.3-15.3l0,0
		c8.5,0,15.3,6.9,15.3,15.3V653.9z"/>
	<g>
		<path class="st27" d="M315.3,439.6c-10.7,0-19.3,8.6-19.3,19.3v0c0,10.7,8.6,19.3,19.3,19.3c10.7,0,19.3-8.6,19.3-19.3v0
			C334.6,448.3,325.9,439.6,315.3,439.6z"/>
		<path class="st27" d="M425,439.6c-10.7,0-19.3,8.6-19.3,19.3v0c0,10.7,8.6,19.3,19.3,19.3c10.7,0,19.3-8.6,19.3-19.3v0
			C444.3,448.3,435.7,439.6,425,439.6z"/>
	</g>
	<g>
		<path class="st29" d="M322.4,442.1c-9.3,0-16.8,7.5-16.8,16.8v0c0,9.3,7.5,16.8,16.8,16.8c9.3,0,16.8-7.5,16.8-16.8v0
			C339.2,449.6,331.6,442.1,322.4,442.1z"/>
		<path class="st29" d="M418,442.1c-9.3,0-16.8,7.5-16.8,16.8v0c0,9.3,7.5,16.8,16.8,16.8c9.3,0,16.8-7.5,16.8-16.8v0
			C434.7,449.6,427.2,442.1,418,442.1z"/>
	</g>
	<path class="st27" d="M357.4,524.6v-30.1c0-7,5.7-12.7,12.7-12.7l0,0c7,0,12.7,5.7,12.7,12.7v30.1l-12.7,18.5l0,0L357.4,524.6z"/>
	<path class="st29" d="M370.2,481.8c-7,0-12.7,5.7-12.7,12.7v20.8c4.5,1.2,9.3,1.9,14.2,1.9c3.9,0,7.6-0.4,11.2-1.2v-21.5
		C382.9,487.5,377.2,481.8,370.2,481.8z"/>
	<circle class="st32" cx="350.1" cy="390.7" r="24"/>
	<path class="st35" d="M370.2,380.1c-11.6,0.6-30.1,5.7-42.4,19.2c3.5,8.9,12.2,15.3,22.3,15.3c13.2,0,24-10.7,24-24
		c0-3.8-0.9-7.4-2.5-10.6C371.1,380.1,370.6,380.1,370.2,380.1z"/>
	<g>
		<path class="st28" d="M426.5,458.9c0,30.3-24.6,54.9-54.9,54.9l0,0c-30.3,0-54.9-24.6-54.9-54.9v-13.3c0-30.3,24.6-54.9,54.9-54.9
			l0,0c30.3,0,54.9,24.6,54.9,54.9V458.9z"/>
		<g>
			<path class="st33" d="M374,458l1.3,1c0.4,0.3,0.9,0.6,1.3,0.9c0.4,0.3,0.8,0.6,1.3,0.9c0.2,0.1,0.4,0.3,0.6,0.4
				c0.2,0.1,0.4,0.3,0.6,0.4c0.4,0.3,0.9,0.5,1.3,0.7l0.6,0.3c0.2,0.1,0.4,0.2,0.6,0.2c0.2,0.1,0.4,0.1,0.6,0.2
				c0.2,0,0.4,0.1,0.6,0.1c0.2,0,0.4,0,0.6,0c0.2,0,0.3-0.1,0.5-0.1l2.1-0.2l-0.3,1.9c-0.1,0.4-0.1,0.6-0.2,1
				c-0.1,0.3-0.2,0.6-0.3,0.9c-0.2,0.6-0.5,1.1-0.7,1.7c-0.1,0.3-0.3,0.5-0.5,0.8c-0.2,0.3-0.4,0.5-0.5,0.7
				c-0.4,0.5-0.8,0.9-1.3,1.3c-0.2,0.2-0.5,0.4-0.7,0.6c-0.3,0.2-0.5,0.3-0.8,0.5c-0.3,0.1-0.6,0.2-0.8,0.4
				c-0.3,0.1-0.6,0.2-0.9,0.3c-0.3,0.1-0.6,0.1-0.9,0.2c-0.3,0-0.6,0.1-0.9,0.1c-0.6,0-1.2-0.1-1.7-0.2c0.3-0.1,0.5-0.2,0.8-0.3
				c0.3-0.1,0.5-0.2,0.7-0.3c0.2-0.1,0.5-0.2,0.7-0.4c0.2-0.1,0.4-0.3,0.6-0.4c0.2-0.1,0.4-0.3,0.6-0.4c0.2-0.2,0.4-0.3,0.6-0.5
				c0.2-0.2,0.3-0.4,0.5-0.5c0.2-0.2,0.3-0.4,0.5-0.6c0.2-0.2,0.3-0.4,0.4-0.6c0.1-0.2,0.3-0.4,0.4-0.6c0.1-0.2,0.2-0.4,0.3-0.6
				c0.1-0.2,0.2-0.4,0.3-0.7c0.2-0.4,0.4-0.9,0.5-1.4c0.1-0.2,0.1-0.5,0.2-0.7l0.1-0.6l1.8,1.7c-0.4,0.1-0.7,0.1-1.1,0.1
				c-0.4,0-0.7,0-1,0c-0.4,0-0.7-0.1-1-0.2c-0.3-0.1-0.6-0.2-0.9-0.3c-0.3-0.1-0.6-0.2-0.8-0.4c-0.3-0.2-0.5-0.3-0.8-0.5
				c-0.5-0.3-0.9-0.7-1.4-1.1c-0.2-0.2-0.4-0.4-0.6-0.6c-0.2-0.2-0.4-0.4-0.6-0.6c-0.4-0.4-0.7-0.9-1-1.3C375,460,374.4,459,374,458
				z"/>
		</g>
		<path class="st6" d="M373.5,484.2c-7.6,0-14.7-1.4-20.5-3.8c3.1,8.3,11.1,14.2,20.5,14.2c9.5,0,17.5-5.9,20.5-14.2
			C388.2,482.7,381.2,484.2,373.5,484.2z"/>
		<circle class="st35" cx="336.3" cy="475.5" r="10.4"/>
		<circle class="st35" cx="408.6" cy="475.5" r="10.4"/>
		<g>
			<path class="st32" d="M360.4,440.2c0,0-0.4-0.1-1-0.4c-0.3-0.1-0.7-0.2-1.1-0.4c-0.4-0.2-0.9-0.2-1.4-0.4
				c-0.5-0.1-1.1-0.2-1.7-0.3c-0.6,0-1.3-0.1-1.9-0.1c-0.3,0-0.7,0-1,0c-0.3,0-0.7,0-1,0.1c-0.7,0-1.5,0.1-2.1,0.2
				c-0.7,0.1-1.5,0.2-2.2,0.4c-0.3,0.1-0.7,0.2-1,0.2c-0.3,0.1-0.7,0.2-1,0.3c-0.7,0.2-1.2,0.4-1.8,0.6c-0.6,0.3-1.1,0.5-1.6,0.7
				c-0.5,0.3-0.9,0.5-1.3,0.7c-0.4,0.3-0.7,0.4-1,0.6c-0.5,0.4-0.8,0.6-0.8,0.6s0.2-0.3,0.5-0.9c0.2-0.3,0.5-0.6,0.8-1
				c0.3-0.4,0.7-0.7,1.2-1.1c0.5-0.4,1-0.7,1.6-1.1c0.6-0.3,1.2-0.7,1.9-0.9c0.3-0.1,0.7-0.3,1-0.4c0.4-0.1,0.7-0.2,1.1-0.3
				c0.8-0.2,1.5-0.3,2.2-0.5c0.9-0.1,1.6-0.2,2.4-0.2c0.4,0,0.8,0,1.1,0c0.4,0,0.8,0.1,1.1,0.1c0.7,0,1.4,0.3,2.1,0.4
				c0.6,0.2,1.3,0.4,1.8,0.6c0.5,0.3,1,0.5,1.4,0.8c0.4,0.3,0.8,0.5,1,0.7C360.1,439.9,360.4,440.2,360.4,440.2z"/>
		</g>
		<g>
			<path class="st32" d="M384.6,440.2c0,0,0.3-0.3,0.8-0.7c0.2-0.2,0.6-0.4,1-0.7c0.4-0.3,0.9-0.5,1.4-0.8c0.5-0.2,1.1-0.4,1.8-0.6
				c0.7-0.1,1.3-0.4,2.1-0.4c0.4,0,0.7-0.1,1.1-0.1c0.4,0,0.8,0,1.1,0c0.8,0,1.5,0.1,2.4,0.2c0.8,0.2,1.5,0.2,2.2,0.5
				c0.4,0.1,0.8,0.2,1.1,0.3c0.4,0.1,0.7,0.3,1,0.4c0.7,0.2,1.3,0.6,1.9,0.9c0.6,0.4,1.1,0.7,1.6,1.1c0.4,0.4,0.9,0.7,1.2,1.1
				c0.3,0.4,0.6,0.7,0.8,1c0.4,0.6,0.5,0.9,0.5,0.9s-0.3-0.2-0.8-0.6c-0.2-0.2-0.6-0.4-1-0.6c-0.4-0.3-0.8-0.5-1.3-0.7
				c-0.5-0.2-1-0.5-1.6-0.7c-0.6-0.2-1.2-0.5-1.8-0.6c-0.3-0.1-0.6-0.2-1-0.3c-0.3-0.1-0.7-0.1-1-0.2c-0.6-0.2-1.4-0.3-2.2-0.4
				c-0.6,0-1.4-0.2-2.1-0.2c-0.4,0-0.7,0-1-0.1c-0.3,0-0.7,0-1,0c-0.7,0-1.3,0.1-1.9,0.1c-0.6,0.1-1.2,0.2-1.7,0.3
				c-0.5,0.1-1,0.2-1.4,0.4c-0.4,0.1-0.8,0.2-1.1,0.4C385,440.1,384.6,440.2,384.6,440.2z"/>
		</g>
		<g>
			<path class="st32" d="M354.5,452.9c0,2.8-2.3,5.1-5.1,5.1l0,0c-2.8,0-5.1-2.3-5.1-5.1v-4c0-2.8,2.3-5.1,5.1-5.1l0,0
				c2.8,0,5.1,2.3,5.1,5.1V452.9z"/>
			<path class="st6" d="M349.3,449.9c0,0.8-0.7,1.5-1.5,1.5l0,0c-0.8,0-1.5-0.7-1.5-1.5v-1.1c0-0.8,0.7-1.5,1.5-1.5l0,0
				c0.8,0,1.5,0.7,1.5,1.5V449.9z"/>
		</g>
		<g>
			<path class="st32" d="M400.7,452.9c0,2.8-2.3,5.1-5.1,5.1l0,0c-2.8,0-5.1-2.3-5.1-5.1v-4c0-2.8,2.3-5.1,5.1-5.1l0,0
				c2.8,0,5.1,2.3,5.1,5.1V452.9z"/>
			<path class="st6" d="M395.5,449.9c0,0.8-0.7,1.5-1.5,1.5l0,0c-0.8,0-1.5-0.7-1.5-1.5v-1.1c0-0.8,0.7-1.5,1.5-1.5l0,0
				c0.8,0,1.5,0.7,1.5,1.5V449.9z"/>
		</g>
		<path class="st32" d="M316.8,456.6c0,0,11.2-18.9,36.2-27.8c20-7.2,35.6-10.3,36.5-24.2c0,0,12.7,9.3,20.2,16.6
			c16.9,16.5,16.9,26.1,16.9,26.1s5-17.6-9.2-40.5c-12.2-19.6-34.5-22.1-47.2-21.4C349.1,386.4,305.6,402.2,316.8,456.6z"/>
	</g>
	<circle class="st6" cx="314.3" cy="474" r="2.6"/>
	<circle class="st6" cx="428.4" cy="474" r="2.6"/>
	<path class="st42" d="M345.7,621.9c0,3.1-2.5,5.6-5.6,5.6l0,0c-3.1,0-5.6-2.5-5.6-5.6v-99c0-3.1,2.5-5.6,5.6-5.6l0,0
		c3.1,0,5.6,2.5,5.6,5.6V621.9z"/>
	<g>
		<path class="st28" d="M337,628.6c0.7,4.1-2.1,7.9-6.2,8.6l0,0c-4.1,0.7-7.9-2.1-8.6-6.2l-6-37.7c-0.7-4.1,2.1-7.9,6.2-8.6l0,0
			c4.1-0.7,7.9,2.1,8.6,6.2L337,628.6z"/>
		<path class="st27" d="M334.9,628.7c-1.1,1.2-1,3,0.1,4l5.3,4.9c1.2,1.1,3,1,4-0.1l0,0c1.1-1.2,1-3-0.1-4l-5.3-4.9
			C337.8,627.5,336,627.6,334.9,628.7L334.9,628.7z"/>
		<path class="st28" d="M328.5,627.1c-6.1,1.3-10,7.2-8.8,13.3l1.5,6.6c1.3,6.1,7.2,10,13.3,8.8l0,0c6.1-1.3,10-7.2,8.8-13.3
			l-1.5-6.6C340.6,629.8,334.6,625.9,328.5,627.1L328.5,627.1z"/>
	</g>
</g>
<g>
	<path class="st25" d="M99.3,691.9c-0.7,1.8-1.1,3.8-1.1,5.9L108.5,819h30.3l2.8-83.9c0.9,0.1,1.9,0.1,2.8,0.1h8.7
		c1,0,1.9,0,2.8-0.1l2.8,83.9h30.3l10.2-121.1c0-2.1-0.4-4.1-1.1-5.9H99.3z"/>
	<path class="st26" d="M181.1,712.7c0,8.8,6.9,16,15.6,16.5l2.7-31.4c0-0.6,0-1.1-0.1-1.6c-0.5,0-1-0.1-1.6-0.1
		C188.5,696.1,181.1,703.5,181.1,712.7z"/>
	<path class="st26" d="M99.5,696.1c-0.4,0-0.8,0-1.2,0.1c-0.1,0.5-0.1,1.1-0.1,1.7l2.7,31.4c8.5-0.7,15.2-7.8,15.2-16.5
		C116.1,703.5,108.6,696.1,99.5,696.1z"/>
	<path class="st26" d="M99.3,691.9c-0.7,1.8-1.1,3.8-1.1,5.9l1.3,14.9c15-4,31.7-6.1,49.3-6.1c17.6,0,34.3,2.1,49.3,6.1l1.3-14.9
		c0-2.1-0.4-4.1-1.1-5.9H99.3z"/>
	<path class="st29" d="M209.3,647.2c1.4,6.8,8,11.2,14.8,9.8l0,0c6.8-1.4,11.2-8,9.8-14.8l-13-62.6c-1.4-6.8-8-11.2-14.8-9.8l0,0
		c-6.8,1.4-11.2,8-9.8,14.8L209.3,647.2z"/>
	<g>
		<path class="st27" d="M84.3,692c-0.5,6.9-6.6,12.1-13.5,11.6l0,0c-6.9-0.5-12.1-6.6-11.6-13.5l6.1-81c0.5-6.9,6.6-12.1,13.5-11.6
			l0,0c6.9,0.5,12.1,6.6,11.6,13.5L84.3,692z"/>
		<circle class="st27" cx="70.8" cy="703.6" r="18.9"/>
		<path class="st29" d="M93.1,704.3c1.6,2.1,1.1,5.1-1,6.7l-9.7,7.2c-2.1,1.6-5.1,1.1-6.7-1l0,0c-1.6-2.1-1.1-5.1,1-6.7l9.7-7.2
			C88.6,701.7,91.6,702.1,93.1,704.3L93.1,704.3z"/>
	</g>
	<path class="st42" d="M148.8,699.8c18.6,0,36.2,2.3,51.8,6.8l-1.6-98.7l3.2,12.3l38.7-6.6c0,0-4.9-28.9-7-35.7
		c-20.2-67.7-54.6-62.7-85.1-62.7c-30.5,0-64.9-5.1-85.1,62.7c-2,6.7-7,35.7-7,35.7l38.7,6.6l3.2-12.3L97,706.5
		C112.6,702.1,130.2,699.8,148.8,699.8z"/>
	<g>
		<path class="st27" d="M56.7,376.1c-17.9,0-32.4,14.5-32.4,32.4v0c0,17.9,14.5,32.4,32.4,32.4c17.9,0,32.4-14.5,32.4-32.4v0
			C89,390.6,74.6,376.1,56.7,376.1z"/>
		<path class="st27" d="M240.9,376.1c-17.9,0-32.4,14.5-32.4,32.4v0c0,17.9,14.5,32.4,32.4,32.4c17.9,0,32.4-14.5,32.4-32.4v0
			C273.2,390.6,258.7,376.1,240.9,376.1z"/>
	</g>
	<g>
		<path class="st29" d="M68.6,380.3c-15.6,0-28.2,12.6-28.2,28.2v0c0,15.6,12.6,28.2,28.2,28.2c15.6,0,28.2-12.6,28.2-28.2v0
			C96.8,392.9,84.2,380.3,68.6,380.3z"/>
		<path class="st29" d="M229,380.3c-15.6,0-28.2,12.6-28.2,28.2v0c0,15.6,12.6,28.2,28.2,28.2c15.6,0,28.2-12.6,28.2-28.2v0
			C257.1,392.9,244.5,380.3,229,380.3z"/>
	</g>
	<path class="st27" d="M170.1,518.7c0,11.8-9.6,21.4-21.4,21.4l0,0c-11.8,0-21.4-9.6-21.4-21.4v-50.5c0-11.8,9.6-21.4,21.4-21.4l0,0
		c11.8,0,21.4,9.6,21.4,21.4V518.7z"/>
	<path class="st29" d="M148.8,446.9c-11.8,0-21.4,9.6-21.4,21.4v34.9c7.6,2,15.6,3.1,23.9,3.1c6.5,0,12.8-0.7,18.9-1.9v-36.1
		C170.1,456.4,160.6,446.9,148.8,446.9z"/>
	<g>
		<path class="st28" d="M243.4,408.5c0,50.9-41.2,92.1-92.1,92.1l0,0c-50.9,0-92.1-41.2-92.1-92.1v-22.4c0-50.9,41.2-92.1,92.1-92.1
			l0,0c50.9,0,92.1,41.2,92.1,92.1V408.5z"/>
		<path class="st32" d="M243.4,397.3c8.7-28.6,0-67.2,0-67.2c3.7,2.5,8.7,8.7,8.7,8.7c-6.2-61-38.6-59.7-38.6-59.7
			s-18.7-38.6-62.2-33.6c-43.6,5-47.3,23.6-47.3,23.6c-61,18.7-58.5,56-58.5,56c3.7-11.2,13.7-12.4,13.7-12.4
			c-13.7,32.4,0,84.6,0,84.6s1.2-22.4,14.9-29.9c13.7-7.5,72.2-7.5,85.9-29.9c0,0,26.1,5,27.4,28.6c0,0,21.2,5,31.1-12.4
			C218.5,353.7,244.3,372.7,243.4,397.3z"/>
		<g>
			<path class="st33" d="M155.3,406.9c1.3,1.2,2.6,2.4,4,3.5c1.3,1.1,2.7,2.2,4.2,3.1c1.4,0.9,2.9,1.7,4.4,2.2
				c1.5,0.5,3,0.7,4.4,0.3l2.3-0.6l-0.4,2.2c-0.4,2.1-1,3.8-1.9,5.6c-0.9,1.7-2.1,3.4-3.6,4.7c-0.4,0.3-0.7,0.7-1.1,1
				c-0.4,0.3-0.8,0.6-1.2,0.8c-0.4,0.2-0.9,0.4-1.3,0.7c-0.4,0.2-0.9,0.4-1.4,0.5c-1.8,0.6-3.8,0.7-5.6,0.5c1.8-0.5,3.5-1,5-1.9
				c1.5-0.8,2.9-1.9,3.9-3.2c1.1-1.3,2-2.7,2.7-4.3c0.4-0.8,0.7-1.6,0.9-2.4c0.3-0.8,0.5-1.7,0.6-2.4l1.8,1.7
				c-2.1,0.5-4.3,0.1-6.1-0.6c-1.8-0.8-3.4-1.8-4.8-3c-1.4-1.2-2.7-2.5-3.8-4C157.1,410.1,156.1,408.6,155.3,406.9z"/>
		</g>
		<path class="st6" d="M154.4,450.8c-12.8,0-24.7-2.4-34.5-6.4c5.1,13.9,18.6,23.8,34.5,23.8s29.3-9.9,34.5-23.8
			C179.1,448.5,167.2,450.8,154.4,450.8z"/>
		<path class="st34" d="M128.5,406.9c-3.2-4.8-8.7-7.9-15-7.9c-6.2,0-11.7,3.1-15,7.9"/>
		<path class="st34" d="M206.5,406.9c-3.2-4.8-8.7-7.9-15-7.9c-6.2,0-11.7,3.1-15,7.9"/>
		<circle class="st35" cx="91.9" cy="436.2" r="17.4"/>
		<circle class="st35" cx="213.4" cy="436.2" r="17.4"/>
		<g>
			<path class="st32" d="M132.4,377.1c-3-1.6-6.2-2.5-9.4-2.9c-3.2-0.4-6.5-0.3-9.8,0.1c-3.2,0.4-6.4,1.3-9.4,2.5
				c-3,1.3-5.9,2.9-8.3,5.3c1.8-2.9,4.6-5.1,7.7-6.7c3.1-1.6,6.4-2.6,9.8-3.1c3.4-0.4,6.9-0.4,10.3,0.4
				C126.6,373.3,129.9,374.7,132.4,377.1z"/>
		</g>
		<g>
			<path class="st32" d="M173,377.1c2.5-2.3,5.8-3.7,9.2-4.4c3.4-0.7,6.9-0.8,10.3-0.4c3.4,0.5,6.8,1.5,9.8,3.1
				c3,1.6,5.9,3.8,7.7,6.7c-2.4-2.4-5.3-4-8.3-5.3c-3-1.2-6.2-2.1-9.4-2.5c-3.2-0.4-6.5-0.5-9.8-0.1
				C179.2,374.6,176,375.4,173,377.1z"/>
		</g>
	</g>
	<g>
		<g>
			<path class="st39" d="M143.6,831.9c1.6-2.9,2.6-6.2,2.6-9.6c0-12.3-5.1-22.3-19.3-22.3H105c-14.2,0-37.4,10-37.4,22.3
				c0,3.5,0.9,6.7,2.6,9.6H143.6z"/>
			<path class="st43" d="M144.6,832.3c0,1.3-1,2.3-2.3,2.3H71.6c-1.3,0-2.3-1-2.3-2.3l0,0c0-1.3,1-2.3,2.3-2.3h70.7
				C143.5,830,144.6,831,144.6,832.3L144.6,832.3z"/>
			<path class="st43" d="M85.5,811.6c0.4,1,0,2.1-1,2.5l0,0c-1,0.4-2.1,0-2.5-1l-2.7-6.3c-0.4-1,0-2.1,1-2.5l0,0c1-0.4,2.1,0,2.5,1
				L85.5,811.6z"/>
			<path class="st43" d="M92,808.5c0.4,1,0,2.1-1,2.5l0,0c-1,0.4-2.1,0-2.5-1l-2.7-6.3c-0.4-1,0-2.1,1-2.5l0,0c1-0.4,2.1,0,2.5,1
				L92,808.5z"/>
			<path class="st43" d="M99.7,806.3c0.4,1,0,2.1-1,2.5l0,0c-1,0.4-2.1,0-2.5-1l-2.7-6.3c-0.4-1,0-2.1,1-2.5l0,0c1-0.4,2.1,0,2.5,1
				L99.7,806.3z"/>
		</g>
		<g>
			<path class="st39" d="M153.9,831.9c-1.6-2.9-2.6-6.2-2.6-9.6c0-12.3,5.1-22.3,19.3-22.3h21.9c14.2,0,37.4,10,37.4,22.3
				c0,3.5-0.9,6.7-2.5,9.6H153.9z"/>
			<path class="st43" d="M153,832.3c0,1.3,1,2.3,2.3,2.3h70.7c1.3,0,2.3-1,2.3-2.3l0,0c0-1.3-1-2.3-2.3-2.3h-70.7
				C154,830,153,831,153,832.3L153,832.3z"/>
			<path class="st43" d="M212,811.6c-0.4,1,0,2.1,1,2.5l0,0c1,0.4,2.1,0,2.5-1l2.7-6.3c0.4-1,0-2.1-1-2.5l0,0c-1-0.4-2.1,0-2.5,1
				L212,811.6z"/>
			<path class="st43" d="M205.6,808.5c-0.4,1,0,2.1,1,2.5l0,0c1,0.4,2.1,0,2.5-1l2.7-6.3c0.4-1,0-2.1-1-2.5l0,0c-1-0.4-2.1,0-2.5,1
				L205.6,808.5z"/>
			<path class="st43" d="M197.8,806.3c-0.4,1,0,2.1,1,2.5l0,0c1,0.4,2.1,0,2.5-1l2.7-6.3c0.4-1,0-2.1-1-2.5l0,0c-1-0.4-2.1,0-2.5,1
				L197.8,806.3z"/>
		</g>
	</g>
	<g>
		
			<rect x="118.6" y="591.4" transform="matrix(0.1052 -0.9945 0.9945 0.1052 -478.1091 709.41)" class="st39" width="73.1" height="57.9"/>
		
			<rect x="122.3" y="595.3" transform="matrix(0.1052 -0.9945 0.9945 0.1052 -478.5935 716.5539)" class="st6" width="73.1" height="57.9"/>
		
			<rect x="117.8" y="598.2" transform="matrix(0.1052 -0.9945 0.9945 0.1052 -485.5413 714.7955)" class="st30" width="73.1" height="57.9"/>
		
			<rect x="147.7" y="623.1" transform="matrix(0.1054 -0.9944 0.9944 0.1054 -455.8741 747.8093)" class="st39" width="80" height="8.2"/>
	</g>
	<g>
		<path class="st27" d="M159.1,625.9c-6.9-0.8-13.1,4.2-13.9,11.1l0,0c-0.8,6.9,4.2,13.1,11.1,13.9l63.6,6.9
			c6.9,0.8,13.1-4.2,13.9-11.1l0,0c0.8-6.9-4.2-13.1-11.1-13.9L159.1,625.9z"/>
		<path class="st29" d="M159,629.3c-1.8,1.9-4.9,1.9-6.8,0.1l-8.7-8.4c-1.9-1.8-1.9-4.9-0.1-6.8l0,0c1.8-1.9,4.9-1.9,6.8-0.1
			l8.7,8.4C160.8,624.4,160.9,627.4,159,629.3L159,629.3z"/>
		<path class="st27" d="M162.3,639.8c-1.6,10.3-11.3,17.4-21.6,15.8l-11.1-2c-10.3-1.6-17.4-11.3-15.8-21.6l0,0
			c1.6-10.3,11.3-17.4,21.6-15.8l11.1,2C156.8,619.8,163.9,629.5,162.3,639.8L162.3,639.8z"/>
	</g>
</g>
</svg>
